<?xml version="1.0" encoding="UTF-8" standalone="no"?>
<!-- Created with Inkscape (http://www.inkscape.org/) -->

<svg
   width="64pt"
   height="64pt"
   viewBox="0 0 22.577778 22.577778"
   version="1.1"
   id="svg831"
   inkscape:version="1.1.2 (b8e25be833, 2022-02-05)"
   sodipodi:docname="Export - Unblash - 64px.svg"
   inkscape:export-filename="E:\Project Design\TR Icon Design Project\Carlos - Icon Design Project\Done\Flat\07 - Diving.png"
   inkscape:export-xdpi="576"
   inkscape:export-ydpi="576"
   xmlns:inkscape="http://www.inkscape.org/namespaces/inkscape"
   xmlns:sodipodi="http://sodipodi.sourceforge.net/DTD/sodipodi-0.dtd"
   xmlns="http://www.w3.org/2000/svg"
   xmlns:svg="http://www.w3.org/2000/svg"
   xmlns:rdf="http://www.w3.org/1999/02/22-rdf-syntax-ns#"
   xmlns:cc="http://creativecommons.org/ns#"
   xmlns:dc="http://purl.org/dc/elements/1.1/">
  <defs
     id="defs825">
    <pattern
       id="EMFhbasepattern"
       patternUnits="userSpaceOnUse"
       width="6"
       height="6"
       x="0"
       y="0" />
    <pattern
       id="EMFhbasepattern-9"
       patternUnits="userSpaceOnUse"
       width="6"
       height="6"
       x="0"
       y="0" />
    <pattern
       id="EMFhbasepattern-0"
       patternUnits="userSpaceOnUse"
       width="6"
       height="6"
       x="0"
       y="0" />
    <pattern
       id="EMFhbasepattern-7"
       patternUnits="userSpaceOnUse"
       width="6"
       height="6"
       x="0"
       y="0" />
    <pattern
       id="EMFhbasepattern-2"
       patternUnits="userSpaceOnUse"
       width="6"
       height="6"
       x="0"
       y="0" />
    <pattern
       id="EMFhbasepattern-98"
       patternUnits="userSpaceOnUse"
       width="6"
       height="6"
       x="0"
       y="0" />
    <pattern
       id="EMFhbasepattern-6"
       patternUnits="userSpaceOnUse"
       width="6"
       height="6"
       x="0"
       y="0" />
    <pattern
       id="EMFhbasepattern-01"
       patternUnits="userSpaceOnUse"
       width="6"
       height="6"
       x="0"
       y="0" />
    <pattern
       id="EMFhbasepattern-07"
       patternUnits="userSpaceOnUse"
       width="6"
       height="6"
       x="0"
       y="0" />
    <pattern
       id="EMFhbasepattern-8"
       patternUnits="userSpaceOnUse"
       width="6"
       height="6"
       x="0"
       y="0" />
    <pattern
       id="EMFhbasepattern-4"
       patternUnits="userSpaceOnUse"
       width="6"
       height="6"
       x="0"
       y="0" />
    <pattern
       id="EMFhbasepattern-40"
       patternUnits="userSpaceOnUse"
       width="6"
       height="6"
       x="0"
       y="0" />
    <pattern
       id="EMFhbasepattern-08"
       patternUnits="userSpaceOnUse"
       width="6"
       height="6"
       x="0"
       y="0" />
    <pattern
       id="EMFhbasepattern-04"
       patternUnits="userSpaceOnUse"
       width="6"
       height="6"
       x="0"
       y="0" />
    <pattern
       id="EMFhbasepattern-014"
       patternUnits="userSpaceOnUse"
       width="6"
       height="6"
       x="0"
       y="0" />
    <pattern
       id="EMFhbasepattern-27"
       patternUnits="userSpaceOnUse"
       width="6"
       height="6"
       x="0"
       y="0" />
    <pattern
       id="EMFhbasepattern-09"
       patternUnits="userSpaceOnUse"
       width="6"
       height="6"
       x="0"
       y="0" />
    <pattern
       id="EMFhbasepattern-5"
       patternUnits="userSpaceOnUse"
       width="6"
       height="6"
       x="0"
       y="0" />
    <pattern
       id="EMFhbasepattern-018"
       patternUnits="userSpaceOnUse"
       width="6"
       height="6"
       x="0"
       y="0" />
  </defs>
  <sodipodi:namedview
     id="base"
     pagecolor="#ffffff"
     bordercolor="#666666"
     borderopacity="1.0"
     inkscape:pageopacity="0.0"
     inkscape:pageshadow="2"
     inkscape:zoom="4.9552717"
     inkscape:cx="44.498065"
     inkscape:cy="42.379109"
     inkscape:document-units="pt"
     inkscape:current-layer="layer1"
     showgrid="false"
     units="pt"
     inkscape:window-width="958"
     inkscape:window-height="1041"
     inkscape:window-x="-7"
     inkscape:window-y="0"
     inkscape:window-maximized="0"
     inkscape:pagecheckerboard="true"
     inkscape:showpageshadow="false"
     inkscape:object-paths="true"
     inkscape:snap-intersection-paths="true"
     inkscape:snap-smooth-nodes="true"
     inkscape:snap-midpoints="true"
     showguides="true"
     inkscape:snap-bbox="true"
     inkscape:bbox-nodes="true"
     inkscape:snap-nodes="false"
     inkscape:snap-global="true"
     inkscape:snap-others="false">
    <inkscape:grid
       type="xygrid"
       id="grid1378" />
    <sodipodi:guide
       position="0.97013831,21.607643"
       orientation="78.000048,0"
       id="guide1380"
       inkscape:locked="false" />
    <sodipodi:guide
       position="0.97013831,0.97013129"
       orientation="0,78.000005"
       id="guide1382"
       inkscape:locked="false" />
    <sodipodi:guide
       position="21.607639,0.97013129"
       orientation="-78.000048,0"
       id="guide1384"
       inkscape:locked="false" />
    <sodipodi:guide
       position="21.607639,21.607643"
       orientation="0,-78.000005"
       id="guide1386"
       inkscape:locked="false" />
  </sodipodi:namedview>
  <metadata
     id="metadata828">
    <rdf:RDF>
      <cc:Work
         rdf:about="">
        <dc:format>image/svg+xml</dc:format>
        <dc:type
           rdf:resource="http://purl.org/dc/dcmitype/StillImage" />
      </cc:Work>
    </rdf:RDF>
  </metadata>
  <g
     inkscape:label="Icon"
     inkscape:groupmode="layer"
     id="layer1"
     transform="translate(0,-274.42223)">
    <g
       id="g405378"
       style="display:inline;stroke-width:0.794888"
       transform="matrix(1.258038,0,0,1.258038,0.63856485,-77.275846)">
      <path
         style="color:#000000;fill:#ececec;stroke-width:0.420629;stroke-linecap:round;stroke-linejoin:round;-inkscape-stroke:none"
         d="m 4.7487554,287.36442 1.2373682,2.14318 -3.2079012,1.85209 c -0.2531104,0.14609 -0.576741,0.0594 -0.7228629,-0.19369 l -1.45521002,-2.5205 c -0.1461247,-0.25309 -0.059408,-0.57673 0.1936923,-0.72286 l 1.83308752,-1.05833 1.3748173,-0.79375 z"
         id="path150224" />
      <path
         style="fill:#3a4d5c;fill-opacity:1;stroke:none;stroke-width:0.420629;stroke-linecap:round;stroke-linejoin:round;stroke-opacity:1"
         d="m 5.7567812,289.63975 -0.6614592,-1.14568 -1.1456809,0.66146 0.6614591,1.14568 z"
         id="path158597"
         sodipodi:nodetypes="ccccc" />
      <path
         style="color:#000000;fill:#ececec;stroke-width:0.420629;stroke-linecap:round;stroke-linejoin:round;-inkscape-stroke:none"
         d="m 6.7916316,286.59842 -3.2386579,1.86985 -1.7197953,-2.97878 c -0.1461266,-0.25309 -0.059412,-0.57673 0.1936856,-0.72286 l 2.8170334,-1.62641 z"
         id="path147810"
         sodipodi:nodetypes="cccccc" />
      <path
         id="path254141"
         style="color:#000000;fill:#cccccc;fill-opacity:1;stroke-width:0.420629;stroke-linecap:round;stroke-linejoin:round;-inkscape-stroke:none"
         d="m 5.0053794,283.04684 -0.396875,0.22893 c 0.6614988,1.14575 1.3233927,2.29125 1.9848918,3.437 l 0.3963583,-0.22893 z" />
      <path
         id="path158322"
         style="color:#000000;fill:#cccccc;stroke-width:0.420629;stroke-linecap:round;stroke-linejoin:round;-inkscape-stroke:none"
         d="m 4.9278647,287.67446 -1.37511,0.79375 2.4334434,1.03922 z" />
      <path
         style="color:#000000;fill:#3a4d5c;stroke-width:0.420629;stroke-linecap:round;stroke-linejoin:round;-inkscape-stroke:none"
         d="m 4.6580604,282.44483 0.9165428,-0.52917 c 2.6023711,4.50744 5.2047378,9.01488 7.8071068,13.52232 l -1.460132,-0.41236 c -2.4211734,-4.1936 -4.8423458,-8.38719 -7.2635176,-12.58079 z"
         id="path180332" />
      <path
         id="path244265"
         style="color:#000000;fill:#143441;fill-opacity:1;stroke-width:0.420629;stroke-linecap:round;stroke-linejoin:round;-inkscape-stroke:none"
         d="m 8.7312502,287.38301 -0.6108155,1.05833 c 0.2036596,0.35275 0.4071559,0.70559 0.6108155,1.05834 l 0.6108155,-1.05834 c -0.2036622,-0.35275 -0.4071532,-0.70558 -0.6108155,-1.05833 z" />
      <path
         style="color:#000000;fill:#143441;fill-opacity:1;stroke-width:0.794888;stroke-linecap:round;stroke-linejoin:round;-inkscape-stroke:none"
         d="m 5.0449219,280.37305 c -0.2948595,-0.079 -0.6209187,-0.0464 -0.9042969,0.11718 -0.5667552,0.32722 -0.7627612,1.06022 -0.4355469,1.62696 0.3272154,0.56676 1.060203,0.76276 1.6269531,0.43554 0.5667518,-0.32721 0.7627645,-1.0602 0.4355469,-1.62695 -0.1636052,-0.28337 -0.4277968,-0.47372 -0.7226562,-0.55273 z"
         id="path180526" />
      <path
         id="path26831"
         style="color:#000000;fill:#143441;fill-opacity:1;stroke-width:0.794888;stroke-linecap:round;stroke-linejoin:round;-inkscape-stroke:none"
         d="m 11.410673,292.02407 -0.91674,0.52865 c 0.08833,0.15299 0.176774,0.3059 0.2651,0.45889 1.77e-4,0 3.53e-4,0 5.3e-4,0 l 0.915706,-0.52917 z m 0.59738,1.03456 -0.916223,0.52917 c 0.08797,0.15237 0.175576,0.30496 0.26355,0.45734 4.3e-5,7e-5 4.76e-4,-8e-5 5.29e-4,0 l 0.915706,-0.52969 z"
         sodipodi:nodetypes="ccccccccsccc" />
      <path
         style="color:#000000;fill:#3a4d5c;stroke-width:0.420629;stroke-linecap:round;stroke-linejoin:round;-inkscape-stroke:none"
         d="M 11.358731,281.91566 3.55591,295.43055 5.015922,295.0184 12.275273,282.44483 Z"
         id="path187629" />
      <path
         style="color:#000000;fill:#143441;stroke-width:0.794888;stroke-linecap:round;stroke-linejoin:round;-inkscape-stroke:none"
         d="m 11.888672,280.37305 c -0.29486,0.079 -0.559051,0.26936 -0.722656,0.55273 -0.327218,0.56675 -0.131205,1.29974 0.435547,1.62695 0.56675,0.32722 1.299737,0.13122 1.626953,-0.43554 0.327214,-0.56674 0.131208,-1.29974 -0.435547,-1.62696 -0.283378,-0.1636 -0.609438,-0.19619 -0.904297,-0.11718 z"
         id="path207841" />
      <path
         id="path34394"
         style="color:#000000;fill:#143441;fill-opacity:1;stroke-width:0.794888;stroke-linecap:round;stroke-linejoin:round;-inkscape-stroke:none"
         d="m 5.2586063,292.48245 0.9162233,0.52814 0.2645833,-0.45837 -0.9167524,-0.52815 z m 0.5834269,1.10483 -0.9157063,-0.52865 -0.00103,-5.3e-4 -1.61e-5,2e-5 -0.2640664,0.45785 0.9157063,0.52917 z"
         sodipodi:nodetypes="cccccccccccc" />
      <path
         style="fill:#3a4d5c;fill-opacity:1;stroke:none;stroke-width:0.420629;stroke-linecap:round;stroke-linejoin:round;stroke-opacity:1"
         d="m 5.0056292,283.04684 -1.1456734,0.66147 0.6614573,1.14568 1.1456803,-0.66146 z"
         id="path109869" />
      <path
         id="path109871"
         style="fill:#3a4d5c;fill-opacity:1;stroke:none;stroke-width:0.420629;stroke-linecap:round;stroke-linejoin:round;stroke-opacity:1"
         d="m 2.2298346,286.17732 1.1456664,-0.66146 -0.6614548,-1.1461 -0.6872965,0.39687 c -0.2525551,0.14582 -0.3396378,0.46856 -0.1948201,0.7214 z"
         sodipodi:nodetypes="cccccc" />
      <path
         style="fill:#3a4d5c;fill-opacity:1;stroke:none;stroke-width:0.420629;stroke-linecap:round;stroke-linejoin:round;stroke-opacity:1"
         d="m 4.521412,284.85399 -1.1456773,0.66145 0.6614591,1.14568 1.1456771,-0.66145 z"
         id="path110938" />
      <path
         style="fill:#3a4d5c;fill-opacity:1;stroke:none;stroke-width:0.420629;stroke-linecap:round;stroke-linejoin:round;stroke-opacity:1"
         d="m 5.1828696,285.99967 1.1456808,-0.66146 0.6614594,1.14568 -1.1456787,0.66146 z"
         id="path110940" />
      <path
         style="fill:#3a4d5c;fill-opacity:1;stroke:none;stroke-width:0.420629;stroke-linecap:round;stroke-linejoin:round;stroke-opacity:1"
         d="m 4.0371938,286.66112 -1.1456815,0.66146 0.6614615,1.14569 1.1456773,-0.66147 z"
         id="path110942" />
      <path
         id="path110944"
         style="fill:#3a4d5c;fill-opacity:1;stroke:none;stroke-width:0.420629;stroke-linecap:round;stroke-linejoin:round;stroke-opacity:1"
         d="m 1.4810466,287.52564 -0.68729658,0.39687 c -0.25255782,0.14582 -0.33963598,0.46856 -0.19482015,0.7214 3.1221e-4,5.6e-4 7.1967e-4,10e-4 0.001035,0.002 l 0.39687501,0.68729 1.14566652,-0.66146 z" />
      <path
         style="fill:#3a4d5c;fill-opacity:1;stroke:none;stroke-width:0.420629;stroke-linecap:round;stroke-linejoin:round;stroke-opacity:1"
         d="m 3.4656232,290.96281 -0.6614592,-1.14568 -1.1456809,0.66146 0.6614591,1.14568 z"
         id="path111419"
         sodipodi:nodetypes="ccccc" />
      <path
         style="fill:#3a4d5c;fill-opacity:1;stroke:none;stroke-width:0.420629;stroke-linecap:round;stroke-linejoin:round;stroke-opacity:1"
         d="m 3.2881822,288.00985 -1.1456773,0.66145 0.6614591,1.14568 1.1456771,-0.66145 z"
         id="path158515" />
      <path
         style="color:#000000;fill:#ececec;stroke-width:0.420629;stroke-linecap:round;stroke-linejoin:round;-inkscape-stroke:none"
         d="m 12.184579,287.36442 -1.237368,2.14318 3.207901,1.85209 c 0.25311,0.14609 0.576741,0.0594 0.722863,-0.19369 l 1.45521,-2.5205 c 0.146125,-0.25309 0.05941,-0.57673 -0.193692,-0.72286 l -1.833088,-1.05833 -1.374817,-0.79375 z"
         id="path160071" />
      <path
         style="fill:#3a4d5c;fill-opacity:1;stroke:none;stroke-width:0.420629;stroke-linecap:round;stroke-linejoin:round;stroke-opacity:1"
         d="m 11.176553,289.63975 0.661459,-1.14568 1.145681,0.66146 -0.661459,1.14568 z"
         id="path160073"
         sodipodi:nodetypes="ccccc" />
      <path
         style="color:#000000;fill:#ececec;stroke-width:0.420629;stroke-linecap:round;stroke-linejoin:round;-inkscape-stroke:none"
         d="m 10.094276,286.57104 3.286084,1.89723 1.719796,-2.97878 c 0.146127,-0.25309 0.05941,-0.57673 -0.193686,-0.72286 l -2.786392,-1.60872 z"
         id="path160075"
         sodipodi:nodetypes="cccccc" />
      <path
         id="path244263"
         style="color:#000000;fill:#cccccc;fill-opacity:1;stroke-width:0.420629;stroke-linecap:round;stroke-linejoin:round;-inkscape-stroke:none"
         d="m 11.927954,283.04684 -1.9843747,3.437 0.3963587,0.22893 1.984891,-3.437 z" />
      <path
         id="path160077"
         style="color:#000000;fill:#cccccc;stroke-width:0.420629;stroke-linecap:round;stroke-linejoin:round;-inkscape-stroke:none"
         d="m 12.005469,287.67446 1.37511,0.79375 -2.433443,1.03922 z" />
      <path
         style="fill:#3a4d5c;fill-opacity:1;stroke:none;stroke-width:0.420629;stroke-linecap:round;stroke-linejoin:round;stroke-opacity:1"
         d="m 11.927705,283.04684 1.145673,0.66147 -0.661457,1.14568 -1.14568,-0.66146 z"
         id="path160079" />
      <path
         id="path160081"
         style="fill:#3a4d5c;fill-opacity:1;stroke:none;stroke-width:0.420629;stroke-linecap:round;stroke-linejoin:round;stroke-opacity:1"
         d="m 14.219288,284.36976 0.687297,0.39687 c 0.252555,0.14582 0.339638,0.46856 0.19482,0.7214 -3.11e-4,5.5e-4 -7.2e-4,0.001 -10e-4,0.002 l -0.396875,0.68729 -1.145667,-0.66146 z" />
      <path
         style="fill:#3a4d5c;fill-opacity:1;stroke:none;stroke-width:0.420629;stroke-linecap:round;stroke-linejoin:round;stroke-opacity:1"
         d="m 12.411922,284.85399 1.145677,0.66145 -0.661459,1.14568 -1.145677,-0.66145 z"
         id="path160083" />
      <path
         style="fill:#3a4d5c;fill-opacity:1;stroke:none;stroke-width:0.420629;stroke-linecap:round;stroke-linejoin:round;stroke-opacity:1"
         d="m 11.750465,285.99967 -1.145681,-0.66146 -0.66146,1.14568 1.145679,0.66146 z"
         id="path160085" />
      <path
         style="fill:#3a4d5c;fill-opacity:1;stroke:none;stroke-width:0.420629;stroke-linecap:round;stroke-linejoin:round;stroke-opacity:1"
         d="m 12.89614,286.66112 1.145682,0.66146 -0.661462,1.14569 -1.145677,-0.66147 z"
         id="path160087" />
      <path
         id="path160089"
         style="fill:#3a4d5c;fill-opacity:1;stroke:none;stroke-width:0.420629;stroke-linecap:round;stroke-linejoin:round;stroke-opacity:1"
         d="m 15.452288,287.52564 0.687296,0.39687 c 0.252558,0.14582 0.339636,0.46856 0.194821,0.7214 -3.11e-4,5.5e-4 -7.21e-4,10e-4 -0.001,0.002 l -0.396875,0.6873 -1.145667,-0.66146 z" />
      <path
         style="fill:#3a4d5c;fill-opacity:1;stroke:none;stroke-width:0.420629;stroke-linecap:round;stroke-linejoin:round;stroke-opacity:1"
         d="m 13.467711,290.96281 0.661459,-1.14568 1.145681,0.66146 -0.661459,1.14568 z"
         id="path160091"
         sodipodi:nodetypes="ccccc" />
      <path
         style="fill:#3a4d5c;fill-opacity:1;stroke:none;stroke-width:0.420629;stroke-linecap:round;stroke-linejoin:round;stroke-opacity:1"
         d="m 13.645152,288.00985 1.145678,0.66145 -0.66146,1.14568 -1.145677,-0.66145 z"
         id="path160093" />
      <path
         style="color:#000000;fill:#fec872;fill-opacity:1;stroke-width:0.794888;stroke-linecap:round;stroke-linejoin:round;-inkscape-stroke:none"
         d="m 8.4863281,294.35937 c -2.5127652,-0.006 -5.0319804,0.61267 -7.54687497,1.875 a 0.26460996,0.26460996 0 0 0 0.11914057,0.50196 H 15.875 a 0.26460996,0.26460996 0 0 0 0.117188,-0.50196 c -2.487326,-1.23856 -4.993095,-1.86915 -7.5058599,-1.875 z"
         id="path205753" />
      <path
         id="path266195"
         style="color:#000000;fill:#fca311;fill-opacity:1;stroke-width:0.794888;stroke-linecap:round;stroke-linejoin:round;-inkscape-stroke:none"
         d="m 8.486304,294.35933 c -2.5127652,-0.006 -5.031932,0.61249 -7.54682645,1.87482 a 0.26460996,0.26460996 0 0 0 -0.12609047,0.3328 c 2.38096382,-1.12986 4.76520972,-1.68413 7.14375022,-1.67846 2.4943377,0.006 4.9818717,0.62733 7.4512247,1.84795 H 15.875 a 0.26460996,0.26460996 0 0 0 0.117306,-0.50229 c -2.487326,-1.23856 -4.993237,-1.86897 -7.506002,-1.87482 z" />
      <path
         id="path251221"
         style="color:#000000;fill:#143441;fill-opacity:1;stroke-width:0.420629;stroke-linecap:round;stroke-linejoin:round;-inkscape-stroke:none"
         d="m 11.927954,283.04684 -0.661458,1.14567 0.396875,0.22892 0.661458,-1.14566 z" />
      <path
         id="path252632"
         style="color:#000000;fill:#143441;fill-opacity:1;stroke-width:0.420629;stroke-linecap:round;stroke-linejoin:round;-inkscape-stroke:none"
         d="m 10.605038,285.33817 -0.6614587,1.14567 0.3963587,0.22893 0.661458,-1.14567 z" />
      <path
         id="path255008"
         style="color:#000000;fill:#143441;fill-opacity:1;stroke-width:0.420629;stroke-linecap:round;stroke-linejoin:round;-inkscape-stroke:none"
         d="m 5.0053794,283.04684 -0.396875,0.22893 c 0.2204852,0.38189 0.4409144,0.76381 0.6614584,1.14566 l 0.396875,-0.22892 z" />
      <path
         id="path256614"
         style="color:#000000;fill:#143441;fill-opacity:1;stroke-width:0.420629;stroke-linecap:round;stroke-linejoin:round;-inkscape-stroke:none"
         d="m 6.3282961,285.33817 -0.3963583,0.22893 c 0.2205438,0.38185 0.4409729,0.76377 0.6614584,1.14567 l 0.3963583,-0.22893 z" />
      <path
         id="path258123"
         style="color:#000000;fill:#b2b2b2;fill-opacity:1;stroke-width:0.420629;stroke-linecap:round;stroke-linejoin:round;-inkscape-stroke:none"
         d="m 4.9278647,287.67446 -1.37511,0.79375 0.5270998,0.2248 1.0769367,-0.62167 z" />
      <path
         id="path264901"
         style="color:#000000;fill:#b2b2b2;fill-opacity:1;stroke-width:0.420629;stroke-linecap:round;stroke-linejoin:round;-inkscape-stroke:none"
         d="m 12.005469,287.67446 -0.228926,0.39688 1.076936,0.62167 0.5271,-0.2248 z" />
      <path
         style="color:#000000;fill:#fca311;fill-opacity:1;stroke-width:0.794888;stroke-linecap:round;stroke-linejoin:round;-inkscape-stroke:none"
         d="m 0.52929687,296.20703 a 0.2645835,0.2645835 0 0 0 -0.26562499,0.26367 0.2645835,0.2645835 0 0 0 0.26562499,0.26563 H 16.404297 a 0.2645835,0.2645835 0 0 0 0.263672,-0.26563 0.2645835,0.2645835 0 0 0 -0.263672,-0.26367 z"
         id="path36855" />
    </g>
  </g>
</svg>
